Coordinates
version=1
nRows=8
nColumns=40
inDegrees=yes

Units are S.I. units (second, meters, Newtons, ...)
Angles are in degrees.

endheader
time	pelvis_tilt	pelvis_list	pelvis_rotation	pelvis_tx	pelvis_ty	pelvis_tz	hip_flexion_r	hip_adduction_r	hip_rotation_r	knee_angle_r	knee_angle_r_beta	ankle_angle_r	subtalar_angle_r	mtp_angle_r	hip_flexion_l	hip_adduction_l	hip_rotation_l	knee_angle_l	knee_angle_l_beta	ankle_angle_l	subtalar_angle_l	mtp_angle_l	lumbar_extension	lumbar_bending	lumbar_rotation	arm_flex_r	arm_add_r	arm_rot_r	elbow_flex_r	pro_sup_r	wrist_flex_r	wrist_dev_r	arm_flex_l	arm_add_l	arm_rot_l	elbow_flex_l	pro_sup_l	wrist_flex_l	wrist_dev_l
     56.78000000	     -5.15598800	     -6.06097467	     -3.59733293	      1.06975100	      0.92053312	      0.50402761	     23.23946977	      4.02992805	    -12.16438403	     19.44657549	     19.44657549	      3.93103289	     -0.20398629	     -0.43844031	      2.34234793	    -13.12102269	     -9.21908103	     37.21343848	     37.21343848	      8.89605192	    -11.14265471	    -18.63444087	    -11.35329336	      5.11300076	      0.65861789	    -11.01244553	    -13.23204850	     -1.67910386	     34.78913383	     45.67526755	      0.00000000	      0.00000000	     11.77306639	    -16.43299904	     -2.43409311	    105.96709627	     48.37413858	      0.00000000	      0.00000000
     56.79171429	     -5.22733899	     -6.10102586	     -3.38830851	      1.07035762	      0.92165394	      0.50668937	     22.50255012	      4.17903013	    -12.50494306	     19.12203308	     19.12203308	      4.41390679	      0.23657971	     -0.60301762	      4.31123415	    -13.77258949	     -8.16028407	     41.12350576	     41.12350576	      6.67693850	    -12.10145166	    -18.42287290	    -11.33560734	      5.05623876	      0.59878114	     -9.54459555	    -13.18732630	     -1.59222412	     35.78762905	     45.64179303	      0.00000000	      0.00000000	     10.44164800	    -16.16266650	     -2.11603013	    104.25455734	     48.31699497	      0.00000000	      0.00000000
     56.80342857	     -5.25669250	     -5.99395475	     -3.18314798	      1.07079040	      0.92261194	      0.50899509	     21.86829608	      4.06087867	    -13.07862590	     19.07304478	     19.07304478	      4.97649214	      1.12755598	     -0.92781144	      6.35166406	    -14.03385531	     -6.79069566	     45.00187641	     45.00187641	      4.51038914	    -13.42381461	    -17.10603085	    -11.33664542	      4.90674560	      0.72447981	     -8.60089239	    -13.43030156	     -1.01286438	     38.28920117	     45.52034276	      0.00000000	      0.00000000	      9.60776564	    -15.53675226	     -2.13030693	    101.16296918	     48.26812852	      0.00000000	      0.00000000
     56.81514286	     -5.34330581	     -6.07999087	     -2.93138821	      1.07099444	      0.92323828	      0.51126021	     21.23645119	      4.22078991	    -13.43787894	     18.85799192	     18.85799192	      5.41691538	      1.50520962	     -1.08930866	      8.60322074	    -14.57870181	     -5.56283433	     48.90577298	     48.90577298	      2.39547193	    -14.11228224	    -16.24274951	    -11.31962931	      4.92528863	      0.62222237	     -7.07127557	    -13.51047609	     -0.97679702	     39.64644104	     45.47721189	      0.00000000	      0.00000000	      8.35728886	    -15.36746613	     -1.72014379	     99.09619361	     48.19836172	      0.00000000	      0.00000000
     56.82685714	     -5.36834218	     -6.02161869	     -2.69415640	      1.07096005	      0.92376070	      0.51315862	     20.67807858	      4.12165117	    -14.00298980	     18.90070001	     18.90070001	      5.97975002	      2.30787816	     -1.28441516	     10.98311401	    -14.78216926	     -4.23430428	     52.98000483	     52.98000483	      2.12018003	    -13.80874247	    -10.99442291	    -11.35443277	      4.89609146	      1.35333645	     -6.90217220	    -14.14916231	     -0.17218016	     43.84751101	     45.29011555	      0.00000000	      0.00000000	      8.30236301	    -14.55132716	     -1.00476354	     94.76302080	     48.09223882	      0.00000000	      0.00000000
     56.83857143	     -5.38772921	     -6.19874024	     -2.39213544	      1.07071398	      0.92409249	      0.51504728	     20.09635875	      4.33005287	    -14.39708659	     18.86400017	     18.86400017	      6.41419226	      2.53141486	     -1.44633415	     13.25792439	    -15.25023361	     -2.99097166	     56.42708292	     56.42708292	      0.39784219	    -14.37384356	    -10.14455032	    -11.49795356	      5.00466670	      1.21658211	     -5.03286741	    -14.28735761	     -0.33162558	     44.99350539	     45.26861549	      0.00000000	      0.00000000	      7.11177220	    -14.36389759	     -0.62849058	     92.68404272	     48.02414744	      0.00000000	      0.00000000
     56.85028571	     -5.43512755	     -6.23292306	     -2.06567546	      1.07021202	      0.92435364	      0.51649285	     19.62499094	      4.29126247	    -14.97316736	     18.97117384	     18.97117384	      7.01035378	      3.17081589	     -1.40091929	     15.80927607	    -15.40121570	     -1.68496668	     60.06644664	     60.06644664	      1.35578104	    -13.58196623	     -3.64327036	    -11.48936366	      5.14005967	      1.95617204	     -4.38719031	    -14.84498227	     -0.27247908	     48.39608324	     45.16802121	      0.00000000	      0.00000000	      7.41846422	    -13.50827246	     -0.09292864	     87.20217134	     47.90611462	      0.00000000	      0.00000000
     56.86200000	     -5.49131327	     -6.36061633	     -1.73151033	      1.06946116	      0.92455523	      0.51793603	     19.14365677	      4.39657430	    -15.42627899	     18.98691025	     18.98691025	      7.51193499	      3.58566397	     -1.42466274	     18.21049282	    -15.68382316	     -0.61521831	     62.96829628	     62.96829628	      0.97390989	    -13.73855586	     -1.28284543	    -11.52885640	      5.28184817	      2.08817669	     -2.74770550	    -15.07632512	     -0.53158359	     50.15356807	     45.14335300	      0.00000000	      0.00000000	      7.01296939	    -12.81904955	      0.11535717	     83.10002904	     47.82186584	      0.00000000	      0.00000000
